<svg version="1.2" overflow="visible" preserveAspectRatio="none" viewBox="0 0 348 212" xml:space="preserve" y="0px" x="0px" xmlns:xlink="http://www.w3.org/1999/xlink" xmlns="http://www.w3.org/2000/svg" width="125" height="76"><g transform="translate(1, 1)"><style type="text/css">
	.st0_1543497943065{fill:#005E9E;}
	.st1_1543497943065{fill:#009ADA;}
	.st2_1543497943065{fill:#FFFFFF;}
</style><g id="M&#248;rk_bl&#229;_1543497943065">
	<g>
		<g>
			<polygon points="129.6,151.7 126.8,158.5 126.7,158.8 132.5,158.8 129.7,152.1" class="st0_1543497943065" vector-effect="non-scaling-stroke"/>
			<path d="M211.8,147.6h-1.6v14.8h1.6c5.5,0,8.7-2.8,8.7-7.7C220.5,149.9,217.7,147.6,211.8,147.6z" class="st0_1543497943065" vector-effect="non-scaling-stroke"/>
			<path d="M271.5,150.9c0-2.3-1.5-3.4-4.5-3.4h-3.3v6.7v0.1h2.6C269.9,154.3,271.5,153.2,271.5,150.9z" class="st0_1543497943065" vector-effect="non-scaling-stroke"/>
			<polygon points="169,151.7 166.2,158.5 166.1,158.8 171.9,158.8 169.1,152.1" class="st0_1543497943065" vector-effect="non-scaling-stroke"/>
			<path d="M0,131.7c0,79.2,85.4,82.7,346,76.2v-76.2H0z M47,166.6h-4.8v-10h-9.3v10h-4.8v-23.3h4.8v9.1h9.3v-9.1H47&#10;&#9;&#9;&#9;&#9;V166.6z M66.5,166.7l-1.7-4.1h-8.4l-1.7,4.1h-5.1L60.4,143h0.5l10.8,23.7H66.5z M91.9,157.2c0,6.2-3.5,9.9-9.4,9.9&#10;&#9;&#9;&#9;&#9;s-9.4-3.7-9.5-9.9l0.1-13.9h4.7v13.4c0,2.1,0.4,3.6,1.4,4.6c0.8,0.8,1.9,1.2,3.3,1.2c3,0,4.6-2,4.6-5.8v-13.4h4.8V157.2z&#10;&#9;&#9;&#9;&#9; M107.8,167.1c-6,0-12-4.2-12-12.1c0-8.4,6.1-12.2,11.8-12.2c3.8,0,6.7,1.2,8.8,3.6l-3.2,3.2c-1.3-1.4-3.2-2.2-5.4-2.2&#10;&#9;&#9;&#9;&#9;c-3.4,0-7,2.3-7,7.6c0,5.2,3.5,7.5,7,7.5c3.3,0,5.1-1.4,5.7-4.5v-0.2h-6.1v-4.2h11.2c0.1,0.6,0.1,1.2,0.1,1.7&#10;&#9;&#9;&#9;&#9;C118.7,162.5,114.4,167.1,107.8,167.1z M135.6,166.7l-1.7-4.1v-0.1h-8.4l-1.7,4.1h-5.1l10.8-23.7h0.5l10.8,23.8H135.6z&#10;&#9;&#9;&#9;&#9; M155,166.6h-11.6v-23.3h4.8v19.1h8.7L155,166.6z M174.9,166.7l-1.7-4.1h-8.4l-1.7,4.1H158l10.8-23.7h0.5l10.8,23.7H174.9z&#10;&#9;&#9;&#9;&#9; M201.3,167h-0.5l-13.2-13.6v13.2h-4.8v-23.7h0.5l13,13.3l0.2,0.2v-13.1h4.8V167z M211.8,166.6h-6.2v-23.3h6.2&#10;&#9;&#9;&#9;&#9;c8.7,0,13.6,4.2,13.7,11.4C225.5,162.1,220.4,166.6,211.8,166.6z M256.2,166.6h-6l-7.8-11.7v11.7h-4.8v-23.3h4.8V154l7.9-10.7&#10;&#9;&#9;&#9;&#9;h5.9l-8.8,10.9v0.1L256.2,166.6z M271.2,166.6l-7.4-11.3v11.3H259v-23.3h8.3c5.8,0,9,2.6,9,7.3c0,3.6-2,6-5.9,6.7h-0.2l6.6,9.3&#10;&#9;&#9;&#9;&#9;H271.2z M294.3,166.7l-1.7-4.1h-8.4l-1.7,4.1h-5.1l10.8-23.7h0.5l10.8,23.7H294.3z M313.6,147.6h-7.7v5.2h7.7v4.2h-7.7v9.6h-4.7&#10;&#9;&#9;&#9;&#9;v-23.3h12.4V147.6z M332.5,147.6h-6.1v19h-4.8v-19h-6v-4.3h16.9V147.6z" class="st0_1543497943065" vector-effect="non-scaling-stroke"/>
			<polygon points="288.3,151.7 285.5,158.5 285.4,158.8 291.2,158.8 288.4,152.1" class="st0_1543497943065" vector-effect="non-scaling-stroke"/>
			<polygon points="60.6,151.7 57.8,158.5 57.7,158.8 63.5,158.8 60.7,152.1" class="st0_1543497943065" vector-effect="non-scaling-stroke"/>
		</g>
	</g>
</g><g id="Lys_bl&#229;_1543497943065">
	<g>
		<path d="M70.9,0.4c-6.3,0.1-12.8,0.2-19.4,0.4c5.2,5.6,10.1,11.4,14.9,17.3C67.7,12.1,69.2,6.2,70.9,0.4z" class="st1_1543497943065" vector-effect="non-scaling-stroke"/>
		<path d="M78.4,34c2.5-1.2,4.9-2.4,7.4-3.6c3-10.4,6.5-20.5,10.6-30.3c-5.6,0-11.2,0.1-17,0.2C77.1,9,75,18,73.3,27&#10;&#9;&#9;&#9;C75,29.3,76.7,31.6,78.4,34z" class="st1_1543497943065" vector-effect="non-scaling-stroke"/>
		<path d="M149.1,11.4c1.2-0.2,2.3,0.5,2.5,1.7c0.2,1.1-0.4,2-1.6,2.3c-20.4,4.5-39.8,11.5-58.1,20.5&#10;&#9;&#9;&#9;c-1.1,3.8-2.1,7.5-3,11.3c31.8-18.5,68.2-29.9,107.2-31.9c1.4-0.1,2,0.9,2.2,2c0,1-0.4,2-1.9,2.2c-37.6,4.6-72.9,16.8-104.2,35&#10;&#9;&#9;&#9;c10.2,16.7,19.1,34.3,26.5,52.6c0.4,1.3-0.3,2.8-1.6,3.2c-1.2,0.5-2.3,0.2-3.1-1.3c-8.2-17.1-17.5-33.7-27.7-49.5&#10;&#9;&#9;&#9;c-0.7,3.4-1.4,6.8-2,10.2c11.4,16.9,21.3,34.9,29.5,53.9H346C346,28.9,290.6-0.1,104.2,0c-3.5,8.6-6.6,17.4-9.4,26.4&#10;&#9;&#9;&#9;C111.9,19.2,130.1,14.1,149.1,11.4z" class="st1_1543497943065" vector-effect="non-scaling-stroke"/>
		<path d="M62.1,40.5c0.6-4.1,1.3-8.1,2.1-12.1C56.9,19,49.1,9.8,41,1c-5.9,0.2-12,0.3-18.1,0.5&#10;&#9;&#9;&#9;C37,13.5,50.2,26.5,62.1,40.5z" class="st1_1543497943065" vector-effect="non-scaling-stroke"/>
		<path d="M83,40.5C83,40.6,82.9,40.6,83,40.5v0.2C83.1,40.6,83.1,40.6,83,40.5z" class="st1_1543497943065" vector-effect="non-scaling-stroke"/>
		<path d="M58.3,91.7c0-4.8,0.1-9.6,0.3-14.3c-12.9,10.3-24.9,21.8-35.7,34.3c-0.8,0.9-2.2,0.8-3,0.1&#10;&#9;&#9;&#9;c-0.8-0.7-1.2-1.7-0.5-2.8c11.5-15.3,24.9-29.1,39.7-41.1c0.3-4.5,0.7-8.9,1.2-13.4C37.3,70.1,17,89.4,0,111.4v12.2h60.1&#10;&#9;&#9;&#9;C58.8,112.8,58.3,101.8,58.3,91.7z" class="st1_1543497943065" vector-effect="non-scaling-stroke"/>
		<path d="M56.4,47.1C43,31,28.3,15.9,12.6,1.9C8.5,2.1,4.3,2.2,0,2.4v99.5C15.4,80.5,34.5,61.9,56.4,47.1z" class="st1_1543497943065" vector-effect="non-scaling-stroke"/>
		<path d="M74.6,56.2c1.9-1.3,3.9-2.6,5.8-3.8l0.7-0.6L76,44.4l-7.2,4.3l2.8,3.6C72.6,53.6,73.6,54.9,74.6,56.2z" class="st1_1543497943065" vector-effect="non-scaling-stroke"/>
		<path d="M79.8,107.4c-0.2,1.4-1.2,2.2-2.4,2.1c-1.2-0.2-2.1-1-2.1-2.4c0-11.1,0.6-22.2,1.9-33&#10;&#9;&#9;&#9;c-1.6-2.3-3.2-4.6-4.9-6.9c-1.7,1.2-3.3,2.3-4.9,3.5C66.5,81.8,66,93.1,66,104.5c0,6.4,0.1,12.8,0.4,19.1h40.7&#10;&#9;&#9;&#9;c-7.4-14.5-15.6-28.5-24.6-41.9C81.3,90.2,80.4,98.7,79.8,107.4z" class="st1_1543497943065" vector-effect="non-scaling-stroke"/>
	</g>
</g><g id="Hvitt_1543497943065">
	<path d="M60.3,54.5c-0.5,4.5-0.9,8.9-1.2,13.4c-14.8,12-28.2,25.8-39.7,41.1c-0.7,1.1-0.3,2.1,0.5,2.8&#10;&#9;&#9;c0.8,0.7,2.2,0.8,3-0.1c10.8-12.5,22.8-24,35.7-34.3c-0.2,4.7-0.3,9.5-0.3,14.3c0,10.1,0.5,21.1,1.8,31.9h6.3&#10;&#9;&#9;c-0.3-6.3-0.4-12.7-0.4-19.1c0-11.4,0.5-22.7,1.4-33.8c1.6-1.2,3.2-2.3,4.9-3.5c1.7,2.3,3.3,4.6,4.9,6.9c-1.3,10.8-1.9,21.9-1.9,33&#10;&#9;&#9;c0,1.4,0.9,2.2,2.1,2.4c1.2,0.1,2.2-0.7,2.4-2.1c0.6-8.7,1.5-17.2,2.7-25.7c9,13.4,17.2,27.4,24.6,41.9h6.7&#10;&#9;&#9;c-8.2-19-18.1-37-29.5-53.9c0.6-3.4,1.3-6.8,2-10.2C96.5,75.3,105.8,91.9,114,109c0.8,1.5,1.9,1.8,3.1,1.3c1.3-0.4,2-1.9,1.6-3.2&#10;&#9;&#9;c-7.4-18.3-16.3-35.9-26.5-52.6c31.3-18.2,66.6-30.4,104.2-35c1.5-0.2,1.9-1.2,1.9-2.2c-0.2-1.1-0.8-2.1-2.2-2&#10;&#9;&#9;c-39,2-75.4,13.4-107.2,31.9c0.9-3.8,1.9-7.5,3-11.3c18.3-9,37.7-16,58.1-20.5c1.2-0.3,1.8-1.2,1.6-2.3c-0.2-1.2-1.3-1.9-2.5-1.7&#10;&#9;&#9;c-19,2.7-37.2,7.8-54.3,15c2.8-8.9,5.9-17.7,9.4-26.4c-2.6,0-5.1,0-7.8,0C92.3,9.9,88.8,20,85.8,30.4c-2.5,1.2-4.9,2.4-7.4,3.6&#10;&#9;&#9;c-1.7-2.4-3.4-4.7-5.1-7c1.7-9,3.8-18,6.1-26.8c-2.8,0-5.6,0.1-8.5,0.1c-1.7,5.9-3.2,11.8-4.5,17.7c-4.8-5.9-9.8-11.7-14.9-17.3&#10;&#9;&#9;C48,0.8,44.5,0.9,41,1C49.1,9.8,56.9,19,64.2,28.4c-0.8,4-1.5,8-2.1,12.1c-11.9-14-25.1-27-39.2-38.9c-3.4,0.1-6.8,0.2-10.3,0.4&#10;&#9;&#9;C28.3,15.9,43,31,56.4,47.1C34.5,61.9,15.4,80.5,0,101.9v9.5C17,89.4,37.3,70.1,60.3,54.5z M83,40.5c0.1,0.1,0.1,0.1,0,0.2V40.5&#10;&#9;&#9;C82.9,40.6,83,40.6,83,40.5z M71.3,37.8C71.3,37.9,71.3,37.8,71.3,37.8C71.3,37.8,71.3,37.9,71.3,37.8&#10;&#9;&#9;C71.3,37.9,71.3,37.9,71.3,37.8C71.3,37.9,71.3,37.9,71.3,37.8z M76,44.4l5.1,7.4l-0.7,0.6c-1.9,1.2-3.9,2.5-5.8,3.8&#10;&#9;&#9;c-1-1.3-2-2.6-3-3.9l-2.8-3.6L76,44.4z" class="st2_1543497943065" vector-effect="non-scaling-stroke"/>
	<polygon points="148.2,143.3 143.4,143.3 143.4,166.6 155,166.6 156.9,162.4 148.2,162.4" class="st2_1543497943065" vector-effect="non-scaling-stroke"/>
	<polygon points="42.2,152.4 32.9,152.4 32.9,143.3 28.1,143.3 28.1,166.6 32.9,166.6 32.9,156.6 42.2,156.6 &#10;&#9;&#9;42.2,166.6 47,166.6 47,143.3 42.2,143.3" class="st2_1543497943065" vector-effect="non-scaling-stroke"/>
	<path d="M60.4,143l-10.8,23.7h5.1l1.7-4.1h8.4l1.7,4.1h5.2L60.9,143H60.4z M57.7,158.8l0.1-0.3l2.8-6.8l0.1,0.4&#10;&#9;&#9;l2.8,6.7H57.7z" class="st2_1543497943065" vector-effect="non-scaling-stroke"/>
	<path d="M87.1,156.7c0,3.8-1.6,5.8-4.6,5.8c-1.4,0-2.5-0.4-3.3-1.2c-1-1-1.4-2.5-1.4-4.6v-13.4h-4.7L73,157.2&#10;&#9;&#9;c0.1,6.2,3.6,9.9,9.5,9.9s9.4-3.7,9.4-9.9v-13.9h-4.8V156.7z" class="st2_1543497943065" vector-effect="non-scaling-stroke"/>
	<path d="M118.6,153.6h-11.2v4.2h6.1v0.2c-0.6,3.1-2.4,4.5-5.7,4.5c-3.5,0-7-2.3-7-7.5c0-5.3,3.6-7.6,7-7.6&#10;&#9;&#9;c2.2,0,4.1,0.8,5.4,2.2l3.2-3.2c-2.1-2.4-5-3.6-8.8-3.6c-5.7,0-11.8,3.8-11.8,12.2c0,7.9,6,12.1,12,12.1c6.6,0,10.9-4.6,10.9-11.8&#10;&#9;&#9;C118.7,154.8,118.7,154.2,118.6,153.6z" class="st2_1543497943065" vector-effect="non-scaling-stroke"/>
	<path d="M129.5,142.9l-10.8,23.7h5.1l1.7-4.1h8.4v0.1l1.7,4.1h5.2L130,142.9H129.5z M126.7,158.8l0.1-0.3l2.8-6.8&#10;&#9;&#9;l0.1,0.4l2.8,6.7H126.7z" class="st2_1543497943065" vector-effect="non-scaling-stroke"/>
	<path d="M168.8,143L158,166.7h5.1l1.7-4.1h8.4l1.7,4.1h5.2L169.3,143H168.8z M166.1,158.8l0.1-0.3l2.8-6.8l0.1,0.4&#10;&#9;&#9;l2.8,6.7H166.1z" class="st2_1543497943065" vector-effect="non-scaling-stroke"/>
	<polygon points="196.5,156.4 196.3,156.2 183.3,142.9 182.8,142.9 182.8,166.6 187.6,166.6 187.6,153.4 200.8,167 &#10;&#9;&#9;201.3,167 201.3,143.3 196.5,143.3" class="st2_1543497943065" vector-effect="non-scaling-stroke"/>
	<path d="M211.8,143.3h-6.2v23.3h6.2c8.6,0,13.7-4.5,13.7-11.9C225.4,147.5,220.5,143.3,211.8,143.3z M211.8,162.4h-1.6&#10;&#9;&#9;v-14.8h1.6c5.9,0,8.7,2.3,8.7,7.1C220.5,159.6,217.3,162.4,211.8,162.4z" class="st2_1543497943065" vector-effect="non-scaling-stroke"/>
	<polygon points="256.2,143.3 250.3,143.3 242.4,154 242.4,143.3 237.6,143.3 237.6,166.6 242.4,166.6 242.4,154.9 &#10;&#9;&#9;250.2,166.6 256.2,166.6 247.4,154.3 247.4,154.2" class="st2_1543497943065" vector-effect="non-scaling-stroke"/>
	<path d="M270.4,157.3c3.9-0.7,5.9-3.1,5.9-6.7c0-4.7-3.2-7.3-9-7.3H259v23.3h4.8v-11.3l7.4,11.3h5.6l-6.6-9.3H270.4z&#10;&#9;&#9; M263.7,154.3L263.7,154.3v-6.8h3.3c3,0,4.5,1.1,4.5,3.4c0,2.3-1.6,3.4-5.2,3.4H263.7z" class="st2_1543497943065" vector-effect="non-scaling-stroke"/>
	<path d="M288.2,143l-10.8,23.7h5.1l1.7-4.1h8.4l1.7,4.1h5.2L288.7,143H288.2z M285.4,158.8l0.1-0.3l2.8-6.8l0.1,0.4&#10;&#9;&#9;l2.8,6.7H285.4z" class="st2_1543497943065" vector-effect="non-scaling-stroke"/>
	<polygon points="301.2,166.6 305.9,166.6 305.9,157 313.6,157 313.6,152.8 305.9,152.8 305.9,147.6 313.6,147.6 &#10;&#9;&#9;313.6,143.3 301.2,143.3" class="st2_1543497943065" vector-effect="non-scaling-stroke"/>
	<polygon points="315.6,147.6 321.6,147.6 321.6,166.6 326.4,166.6 326.4,147.6 332.5,147.6 332.5,143.3 315.6,143.3" class="st2_1543497943065" vector-effect="non-scaling-stroke"/>
</g></g></svg>